<?xml version="1.0" encoding="UTF-8"?>
<svg id="Layer_1" data-name="Layer 1" xmlns="http://www.w3.org/2000/svg" version="1.1" viewBox="0 0 101 100">
  <defs>
    <style>
      .cls-1 {
        fill: #595959;
      }

      .cls-1, .cls-2, .cls-3 {
        stroke-width: 0px;
      }

      .cls-2 {
        fill: #5ba5ff;
      }

      .cls-3 {
        fill: #67d49a;
      }
    </style>
  </defs>
  <rect class="cls-3" x="24.3" y="41.8" width="23.9" height="23.9" rx="10" ry="10" transform="translate(-27.4 41.4) rotate(-45)"/>
  <path class="cls-1" d="M25.7,76.2l9.2-6.7c.9-.6,2-.6,2.9,0l9.2,6.7c.6.5,1,1.2,1,2v11.6c0,1.3-1.1,2.4-2.4,2.4h-18.3c-1.3,0-2.4-1.1-2.4-2.4v-11.6c0-.8.4-1.5,1-2Z"/>
  <path class="cls-2" d="M51.7,85.4c-1.5-1.5-1.5-3.9,0-5.3l10.7-10.7c1.5-1.5,3.9-1.5,5.3,0l5.3,5.3c4.4,4.4,4.4,11.6,0,16-4.4,4.4-11.6,4.4-16,0l-5.3-5.3Z"/>
  <path class="cls-1" d="M72,42.7h-17.2c-1.3,0-2.4,1.1-2.4,2.4v17.2c0,1.3,1.1,2.4,2.4,2.4h17.2c1.3,0,2.4-1.1,2.4-2.4v-17.2c0-1.3-1.1-2.4-2.4-2.4Z"/>
</svg>