<svg width="101" height="100" viewBox="0 0 101 100" fill="none" xmlns="http://www.w3.org/2000/svg">
<path d="M65.305 39.1447L41.3999 53.7566V53.8739V53.8852C41.0335 53.8209 40.6634 53.7831 40.2781 53.7831H29.5361C25.9026 53.7831 22.9263 56.76 22.9263 60.4025V69.8589C22.9263 73.4977 25.9026 76.4783 29.5361 76.4783H34.1819C34.114 76.8944 34.0762 77.3294 34.0762 77.772V91.2718C34.0762 93.8856 36.1913 96 38.7975 96H39.6323C42.2422 96 44.3536 93.8856 44.3536 91.2718V78.3242L65.305 91.1357C67.6203 93.2198 69.5164 92.3725 69.5164 89.252V41.0246C69.5164 37.9078 67.6203 37.0567 65.305 39.1447Z" fill="#FFB810"/>
<path d="M71.4181 74.1309C75.094 74.1309 78.0738 70.9381 78.0738 66.9997C78.0738 63.0613 75.094 59.8686 71.4181 59.8686V74.1309Z" fill="#595959"/>
</svg>
