<svg width="101" height="100" viewBox="0 0 101 100" fill="none" xmlns="http://www.w3.org/2000/svg">
<path fill-rule="evenodd" clip-rule="evenodd" d="M50.434 32C51.4062 32 52.2076 32.7319 52.3171 33.6748L52.3298 33.8959V38.4877C52.3298 39.5348 51.481 40.3836 50.434 40.3836C49.4617 40.3836 48.6604 39.6517 48.5509 38.7088L48.5381 38.4877V33.8959C48.5381 32.8488 49.3869 32 50.434 32ZM28.0367 40.0478C28.7771 39.3074 29.9775 39.3074 30.7179 40.0478L34.0288 43.3587L34.1865 43.5373C34.7648 44.281 34.7122 45.3564 34.0288 46.0398C33.2884 46.7802 32.088 46.7802 31.3476 46.0398L28.0367 42.7289L27.879 42.5503C27.3007 41.8066 27.3533 40.7312 28.0367 40.0478ZM72.8312 40.0478C72.0908 39.3074 70.8904 39.3074 70.15 40.0478L66.8391 43.3587L66.6814 43.5373C66.1031 44.281 66.1557 45.3564 66.8391 46.0398C67.5795 46.7802 68.7799 46.7802 69.5203 46.0398L72.8312 42.7289L72.9889 42.5503C73.5672 41.8066 73.5147 40.7312 72.8312 40.0478ZM26.6728 59.6014C27.7199 59.6014 28.5687 60.4503 28.5687 61.4973C28.5687 62.4696 27.8368 63.2709 26.8939 63.3804L26.6728 63.3932H21.9959C20.9488 63.3932 20.1 62.5444 20.1 61.4973C20.1 60.525 20.8319 59.7237 21.7748 59.6142L21.9959 59.6014H26.6728ZM80.9929 61.4973C80.9929 60.4503 80.1441 59.6014 79.0971 59.6014H74.3717L74.1506 59.6142C73.2077 59.7237 72.4758 60.525 72.4758 61.4973C72.4758 62.5444 73.3246 63.3932 74.3717 63.3932H79.0971L79.3182 63.3804C80.261 63.2709 80.9929 62.4696 80.9929 61.4973ZM50.4339 45.7693C59.9553 45.7693 67.6779 53.4918 67.6779 63.0133C67.6779 69.9487 63.5782 75.9255 57.6696 78.6653V83.2545H43.1982V78.6653C37.2921 75.928 33.1899 69.9512 33.1899 63.0133C33.1899 53.4918 40.9125 45.7693 50.4339 45.7693Z" fill="#FFD122"/>
<path d="M42.9547 89.0088C42.9547 92.1828 44.8843 92.3069 46.1001 92.7188C46.7537 94.6317 48.4532 96 50.456 96C52.4588 96 54.1583 94.6345 54.812 92.7188C56.0251 92.3069 57.9547 92.1799 57.9547 89.0088V87H42.9573V89.0088H42.9547Z" fill="#CECECE"/>
</svg>
