<svg width="101" height="100" viewBox="0 0 101 100" fill="none" xmlns="http://www.w3.org/2000/svg">
<path d="M73.3199 46.2634C69.899 42.9912 65.1395 41.2064 59.9337 40.4627C55.0254 39.8678 51.6045 40.0165 51.6045 40.0165C51.6045 40.0165 48.1836 39.8678 43.2753 40.4627C38.0695 41.2064 33.31 42.9912 29.889 46.2634C26.6169 49.6844 24.832 54.4439 24.0883 59.6497C23.3447 64.558 23.6421 67.9789 23.6421 67.9789C23.6421 67.9789 23.3447 71.3998 24.0883 76.3081C24.832 81.5139 26.6169 86.2734 29.889 89.6943C33.31 92.9665 38.0695 94.7513 43.2753 95.495C48.1836 96.09 51.6045 95.9412 51.6045 95.9412C51.6045 95.9412 55.0254 96.09 59.9337 95.495C65.1395 94.7513 69.899 92.9665 73.3199 89.6943C76.5921 86.2734 78.377 81.5139 79.1206 76.3081C79.7156 71.3998 79.5668 67.9789 79.5668 67.9789C79.5668 67.9789 79.7156 64.558 79.1206 59.6497C78.377 54.4439 76.5921 49.6844 73.3199 46.2634Z" fill="#008DF6"/>
<path fill-rule="evenodd" clip-rule="evenodd" d="M65.1394 70.5071C68.1141 70.5071 70.4939 68.1273 70.4939 65.1526C70.4939 62.1779 68.1141 59.7981 65.1394 59.7981C62.1647 59.7981 59.7849 62.1779 59.7849 65.1526L57.4051 65.8963C56.5127 64.2602 55.0253 63.0703 53.0918 62.6241V60.0956C55.1741 59.3519 56.8102 57.4183 56.8102 55.0386C56.8102 52.0639 54.4304 49.6841 51.4557 49.6841C48.481 49.6841 46.1012 52.0639 46.1012 55.0386C46.1012 57.4183 47.5885 59.5007 49.8196 60.0956V62.6241C47.886 63.0703 46.3987 64.2602 45.5062 65.8963L43.1265 65.1526V65.0039C43.1265 62.0292 40.7467 59.6494 37.772 59.6494C34.7973 59.6494 32.4175 62.0292 32.4175 65.0039C32.4175 67.9786 34.7973 70.3584 37.772 70.3584C39.5568 70.3584 41.0442 69.466 42.0853 68.2761L44.6138 69.1685V69.3172C44.6138 70.8046 45.06 71.9945 45.8037 73.1844L44.0189 75.5641C43.8701 75.5641 43.2752 75.4154 42.6803 75.4154C39.7055 75.4154 37.3258 77.7952 37.3258 80.7699C37.3258 83.7446 39.7055 86.1244 42.6803 86.1244C45.655 86.1244 48.0348 83.7446 48.0348 80.7699C48.0348 79.58 47.5885 78.3901 46.8449 77.4977L48.3322 75.4154C49.2246 75.8616 50.2658 76.1591 51.4557 76.1591C52.4968 76.1591 53.3892 75.8616 54.2817 75.5641L55.9178 77.7952C55.3228 78.6876 55.0253 79.7287 55.0253 80.7699C55.0253 83.7446 57.4051 86.1244 60.3798 86.1244C63.3546 86.1244 65.7343 83.7446 65.7343 80.7699C65.7343 77.7952 63.3546 75.4154 60.3798 75.4154C59.7849 75.4154 59.0412 75.5641 58.595 75.7129L56.9589 73.4818C57.8513 72.2919 58.2975 70.9533 58.2975 69.466C58.2975 69.3172 58.2975 69.3172 58.2975 69.1685L60.826 68.2761C61.8672 69.7634 63.3546 70.6558 65.1394 70.5071ZM65.1394 63.0703C66.3293 63.0703 67.2217 63.9627 67.2217 65.1526C67.2217 66.3425 66.3293 67.2349 65.1394 67.2349C63.9495 67.2349 63.0571 66.3425 63.0571 65.1526C63.0571 63.9627 63.9495 63.0703 65.1394 63.0703ZM38.0694 67.3837C36.8796 67.3837 35.9871 66.4912 35.9871 65.3014C35.9871 64.1115 36.8796 63.219 38.0694 63.219C39.2593 63.219 40.1517 64.1115 40.1517 65.3014C40.1517 66.4912 39.2593 67.3837 38.0694 67.3837ZM51.6044 53.105C52.7943 53.105 53.6867 53.9974 53.6867 55.1873C53.6867 56.3772 52.7943 57.2696 51.6044 57.2696C50.4145 57.2696 49.5221 56.3772 49.5221 55.1873C49.5221 53.9974 50.4145 53.105 51.6044 53.105ZM42.6803 82.8522C41.4904 82.8522 40.598 81.9598 40.598 80.7699C40.598 79.58 41.4904 78.6876 42.6803 78.6876C43.8701 78.6876 44.7626 79.58 44.7626 80.7699C44.7626 81.9598 43.8701 82.8522 42.6803 82.8522ZM48.1835 69.466C48.1835 67.6811 49.6708 66.045 51.6044 66.045C53.3892 66.045 55.0253 67.5324 55.0253 69.466C55.0253 71.2508 53.538 72.8869 51.6044 72.8869C49.8196 72.7381 48.1835 71.2508 48.1835 69.466ZM62.6109 80.7699C62.6109 81.9598 61.7185 82.8522 60.5286 82.8522C59.3387 82.8522 58.4463 81.9598 58.4463 80.7699C58.4463 79.58 59.3387 78.6876 60.5286 78.6876C61.7185 78.6876 62.6109 79.58 62.6109 80.7699Z" fill="white"/>
</svg>
